# xmcd
#
# Track frame offsets:
# 150
# 12807
# 27997
# 48572
# 64122
# 74865
# 106002
# 122522
# 145252
# 153507
# 182630
# 194962
# 204050
#
# Disc length: 3010 seconds
#
#
# Revision: 7
# Processed by: cddbd v1.5.1PL0 Copyright (c) Steve Scherf et al.
# Submitted via: FreeRIP 2.70 
#
DISCID=ba0bc00d
DTITLE=Bob Dylan - The Freewheelin' Bob Dylan
DYEAR=1963
DGENRE=Folk
TTITLE0=Blowin' In The Wind
TTITLE1=Girl From The North Country
TTITLE2=Masters Of War
TTITLE3=Down The Highway
TTITLE4=Bob Dylan's Blues
TTITLE5=A Hard Rain's A-Gonna Fall
TTITLE6=Don't Think Twice, It's All Right
TTITLE7=Bob Dylan's Dream
TTITLE8=Oxford Town
TTITLE9=Talking World War III Blues
TTITLE10=Corrina, Corrina
TTITLE11=Honey, Just Allow Me One More Chance
TTITLE12=I Shall Be Free
EXTD=YEAR: 1963 ID3G: 80
EXTT0=Bob Dylan
EXTT1=Bob Dylan
EXTT2=Bob Dylan
EXTT3=Bob Dylan
EXTT4=Bob Dylan
EXTT5=Bob Dylan
EXTT6=Bob Dylan
EXTT7=Bob Dylan
EXTT8=Bob Dylan
EXTT9=Bob Dylan
EXTT10=Adapted And Arranged By Bob Dylan
EXTT11=H. Thomas - B. Dylan
EXTT12=Bob Dylan
PLAYORDER=
